Coordinates
version=1
nRows=14
nColumns=36
inDegrees=yes

Units are S.I. units (second, meters, Newtons, ...)
If the header above contains a line with 'inDegrees', this indicates whether rotational values are in degrees (yes) or radians (no).

endheader
time	pelvis_tilt	pelvis_list	pelvis_rotation	pelvis_tx	pelvis_ty	pelvis_tz	hip_flexion_r	hip_adduction_r	hip_rotation_r	knee_angle_r	knee_angle_r_beta	ankle_angle_r	subtalar_angle_r	mtp_angle_r	hip_flexion_l	hip_adduction_l	hip_rotation_l	knee_angle_l	knee_angle_l_beta	ankle_angle_l	subtalar_angle_l	mtp_angle_l	lumbar_extension	lumbar_bending	lumbar_rotation	arm_flex_r	arm_add_r	arm_rot_r	elbow_flex_r	pro_sup_r	arm_flex_l	arm_add_l	arm_rot_l	elbow_flex_l	pro_sup_l
      1.56000000	    -12.19018817	      0.63718800	     -2.37797488	     -0.32494912	      0.82277691	     -0.56377146	     61.36176862	      4.83724747	      1.77312072	     82.97646089	      1.44821244	     30.89032169	    -17.36748335	     -7.49940899	     64.53278896	     -5.93425316	      0.10404815	     83.17918311	      1.45175061	     22.36505306	    -13.61278511	     -7.49940899	    -24.66996199	      5.68197212	      2.64576111	     29.71199703	    -29.84431358	      1.12454763	    104.14029296	    114.22430802	     -5.10381260	    -19.74339847	     -5.99867778	     96.84120099	    100.09546278
      1.57000000	    -12.61143377	      0.64190225	     -2.23974812	     -0.32367344	      0.82311645	     -0.56368663	     61.61130128	      4.77540419	      1.76122997	     82.83560448	      1.44575404	     30.91405440	    -17.37388496	     -7.49941281	     64.94209867	     -5.86090854	      0.14058794	     83.16788292	      1.45155339	     22.21983485	    -13.55511233	     -7.49941281	    -24.69777484	      5.81209096	      2.59135692	     29.75341928	    -29.48036672	      1.72647123	    102.62894802	    114.09842697	     -4.35782292	    -20.27304879	     -4.65553293	     97.47654660	    100.28397259
      1.58000000	    -13.04513713	      0.63648754	     -2.05467707	     -0.32240741	      0.82351149	     -0.56358576	     61.86910993	      4.65193133	      1.67591370	     82.67523066	      1.44295498	     30.94394232	    -17.36905127	     -7.49941689	     65.31213595	     -5.73950646	      0.17540957	     83.09204349	      1.45022974	     22.13599541	    -13.56395882	     -7.49941689	    -24.63855351	      5.99281456	      2.44187791	     29.72933237	    -28.97811300	      2.36040660	    101.24073276	    113.98198577	     -3.62980638	    -20.91847093	     -3.35609316	     97.77708491	    100.41369154
      1.59000000	    -13.48301408	      0.63006869	     -1.83318111	     -0.32102648	      0.82401895	     -0.56353480	     62.11519895	      4.49688934	      1.55432548	     82.53525959	      1.44051203	     30.97116410	    -17.37140553	     -7.49942325	     65.61933789	     -5.58070590	      0.16812485	     82.92739339	      1.44735605	     22.06357827	    -13.70019733	     -7.49942325	    -24.51662658	      6.23239174	      2.23700485	     29.61802144	    -28.46094022	      3.02713851	     99.98824691	    113.86184430	     -2.92530731	    -21.43843455	     -2.26816505	     97.70834192	    100.45567984
      1.60000000	    -13.88756419	      0.59163993	     -1.61386713	     -0.31964420	      0.82474324	     -0.56344692	     62.27858174	      4.38135258	      1.45439496	     82.30477434	      1.43648930	     30.99743339	    -17.40442334	     -7.49942721	     65.81765554	     -5.43481602	      0.18922746	     82.62634769	      1.44210182	     22.08881278	    -13.81410138	     -7.49942721	    -24.49259637	      6.43968508	      2.06958632	     29.25744790	    -27.98777800	      3.28585264	     98.99456382	    113.78517903	     -2.44511112	    -21.63140641	     -1.75324510	     97.75949995	    100.45694648
      1.61000000	    -14.37426833	      0.49003687	     -1.46264859	     -0.31831894	      0.82531358	     -0.56300762	     62.53037820	      4.42739545	      1.31914265	     82.03935235	      1.43185681	     30.80866205	    -17.75853030	     -7.49952988	     66.10209446	     -5.45446705	      0.17548724	     82.32537537	      1.43684886	     21.80273682	    -14.31608589	     -7.49952988	    -24.32569546	      6.62640215	      1.98508309	     28.74534126	    -27.29751113	      3.29201057	     98.02153188	    113.77653926	     -1.96942571	    -21.85495561	     -1.12102536	     97.90916277	     96.28919844
      1.62000000	    -14.87195475	      0.37767656	     -1.38616127	     -0.31701982	      0.82586265	     -0.56247074	     62.77740828	      4.52934629	      1.23193173	     81.74759804	      1.42676474	     30.88167100	    -17.72958213	     -7.49962387	     66.32461227	     -5.60220203	      0.10303756	     81.98493033	      1.43090697	     22.14123232	    -14.10499621	     -7.49962387	    -24.13824028	      6.77348953	      1.98471221	     28.16248945	    -26.50572428	      3.02122446	     97.02747224	    114.09974436	     -1.63109305	    -21.88623562	     -0.88564177	     97.98088515	     93.27720227
      1.63000000	    -15.28838281	      0.22978385	     -1.32031051	     -0.31567874	      0.82645244	     -0.56185778	     62.92219362	      4.67660339	      1.14663677	     81.42457573	      1.42112694	     30.77560004	    -18.04616784	     -7.49968621	     66.42568364	     -5.75050631	      0.11453324	     81.62559205	      1.42463534	     22.44016567	    -14.13568139	     -7.49968621	    -24.00093142	      6.91692555	      1.97752795	     27.47791524	    -25.61164081	      2.62960056	     95.95296350	    114.13912755	     -1.34196853	    -21.90023068	     -0.74359241	     97.86890960	     90.84566545
      1.64000000	    -15.76042788	      0.13662181	     -1.25022347	     -0.31428117	      0.82687097	     -0.56123935	     63.13425813	      4.76946927	      1.11030865	     81.15656634	      1.41644929	     30.96170788	    -17.97185552	     -7.49979286	     66.51508074	     -5.89060560	      0.06852272	     81.20671913	      1.41732462	     23.47766185	    -13.22380084	     -7.49979286	    -23.78024800	      7.01945576	      1.84214744	     26.85011855	    -24.71076848	      2.44611887	     94.71799183	    114.09301198	     -1.15726915	    -21.66569103	     -1.36500955	     96.33872605	     99.91973078
      1.65000000	    -16.19594282	     -0.07367132	     -1.14722449	     -0.31289655	      0.82721097	     -0.56059216	     63.30245493	      4.87907531	      0.88426826	     80.85055986	      1.41110847	     31.07270455	    -18.13058920	     -7.49980293	     66.62229837	     -6.02511217	      0.16097306	     80.80539962	      1.41032028	     23.89666153	    -13.32888982	     -7.49980293	    -23.60698057	      7.20777624	      1.78954075	     26.02324479	    -23.76266181	      1.94378368	     93.57527375	    113.47425641	     -0.99787467	    -21.45377906	     -1.36429272	     95.89519651	     99.19300009
      1.66000000	    -16.61788113	     -0.26923857	     -1.04503529	     -0.31156402	      0.82748571	     -0.55994508	     63.49460863	      4.98476703	      0.66493677	     80.57840405	      1.40635846	     30.75096996	    -18.52666683	     -7.49985453	     66.74318398	     -6.18748426	      0.26400200	     80.45831454	      1.40426250	     24.65741941	    -12.71017290	     -7.49985453	    -23.46803367	      7.38354213	      1.80915189	     25.16917245	    -22.95970442	      1.39108467	     92.42271634	    113.99506825	     -0.79503541	    -21.21230081	     -1.17349409	     95.62156521	     95.38191498
      1.67000000	    -16.93414360	     -0.39873602	     -0.93082978	     -0.31024111	      0.82785650	     -0.55941653	     63.60441832	      4.99590958	      0.48346163	     80.40240230	      1.40328665	     31.09452384	    -18.22722128	     -7.49989651	     66.75988216	     -6.27661448	      0.36969425	     80.15009162	      1.39888299	     25.57625910	    -11.91602903	     -7.49989651	    -23.42514793	      7.46993653	      1.73693078	     24.44289627	    -22.00540971	      0.85048725	     90.95149126	    113.76852780	     -0.51931818	    -20.87560025	     -2.08238227	     93.99000729	    101.87246026
      1.68000000	    -17.26468313	     -0.49222374	     -0.82392528	     -0.30897390	      0.82808739	     -0.55891111	     63.77952320	      4.98595213	      0.30661688	     80.26586760	      1.40090367	     30.89849261	    -18.42381984	     -7.49992288	     66.84575534	     -6.33457661	      0.44386611	     79.88203527	      1.39420453	     25.96252416	    -11.69511766	     -7.49992288	    -23.33346793	      7.48760390	      1.71047973	     23.68539729	    -21.02391125	      0.18170936	     89.23476957	    114.21794788	     -0.14384183	    -20.56970414	     -2.39990510	     93.10849174	     99.51212491
      1.69000000	    -17.59726877	     -0.60486539	     -0.72485846	     -0.30773361	      0.82817046	     -0.55836937	     63.97499257	      4.97904655	      0.11836042	     80.18334101	      1.39946331	     31.22406607	    -18.11170576	     -7.49995125	     67.01728117	     -6.42114974	      0.52182889	     79.70668933	      1.39114416	     26.18093343	    -11.53531241	     -7.49995125	    -23.21938326	      7.48394178	      1.54954662	     23.12833649	    -19.88696928	     -0.33860130	     87.21275739	    113.17264846	      0.05644281	    -20.10473070	     -2.64790782	     91.53021917	    104.46031440
